<svg xmlns="http://www.w3.org/2000/svg" xmlns:xlink="http://www.w3.org/1999/xlink" width="850px" height="550px" viewBox="0 0 850 550" preserveAspectRatio="xMidYMid meet"  ><rect id="svgEditorBackground" x="0" y="0" width="850" height="550" style="fill: none; stroke: none;"/><defs id="svgEditorDefs"><polygon id="svgEditorShapeDefs" style="fill:khaki;stroke:black;vector-effect:non-scaling-stroke;stroke-width:1px;"/><path id="svgEditorClosePathDefs" style="stroke:black;stroke-width:1px;fill:khaki;"/><linearGradient gradientUnits="objectBoundingBox" id="lrgd2-e1-50-reflect" spreadMethod="reflect" x1="0%" x2="50%" y1="0%" y2="0%" gradientTransform=""><stop offset="0%" stop-color="lightblue"/><stop offset="100%" stop-color="#ef5b2b"/></linearGradient><linearGradient gradientUnits="objectBoundingBox" id="lrgd2-e1" spreadMethod="pad" x1="0%" x2="100%" y1="0%" y2="0%" gradientTransform="rotate(0)"><stop offset="0%" stop-color="mistyrose"/><stop offset="1" stop-color="#ef5b2b" style="stop-opacity: 1;"/></linearGradient><linearGradient gradientUnits="objectBoundingBox" id="lgrd2-black-white" spreadMethod="pad" x1="0%" x2="100%" y1="0%" y2="100%"><stop offset="0%" stop-color="#969696"/><stop offset="100%" stop-color="#E6E6E6"/></linearGradient></defs><path d="M 4 0 V -1.5 A 2 2 0 0 0 2 -3.5 H -2 A 2 2 0 0 0 -4 -1.5 V 1.5 A 2 2 0 0 0 -2 3.5 H 2 A 2 2 0 0 0 4 1.5 Z" transform="matrix(29.5547 0 0 8.75771 304.713 179.351)" style="vector-effect: non-scaling-stroke; stroke-width: 1px;fill:gainsboro;" id="e3_shape"/><path d="M 5.43572 15.2524 V 13.7524 A 2 2 0 0 0 3.43571 11.7524 H -0.564283 A 2 2 0 0 0 -2.56429 13.7524 V 16.7524 A 2 2 0 0 0 -0.564283 18.7524 H 3.43571 A 2 2 0 0 0 5.43572 16.7524 Z" transform="matrix(-0.0085705 27.1469 -8.75771 -0.00107997 442.665 256.969)" style="vector-effect: non-scaling-stroke; stroke-width: 1px;fill:gainsboro;" id="e9_shape"/><path d="M3.886488914489746,17.59223747253418V16.092235565185547A2,2,0,0,0,1.886488914489746,14.092230796813965H-2.1134984493255615A2,2,0,0,0,-4.113498210906982,16.092235565185547V19.092239379882812A2,2,0,0,0,-2.1134984493255615,21.092239379882812H1.886488914489746A2,2,0,0,0,3.886488914489746,19.092239379882812Z" transform="matrix(7.08447 0 0 1.97004 491.88 118.271)" style="fill:lightgray; vector-effect: non-scaling-stroke; stroke-width: 1px;" id="e1_shape"/><path d="M12.995734214782715,3.2272462844848633V1.727245807647705A2,2,0,0,0,10.99573802947998,-0.27275609970092773H6.995755672454834A2,2,0,0,0,4.995755672454834,1.727245807647705V4.7272467613220215A2,2,0,0,0,6.995755672454834,6.727245330810547H10.99573802947998A2,2,0,0,0,12.995734214782715,4.7272467613220215Z" transform="matrix(4.01207 0 0 1.97004 460.272 172.271)" style="fill:lightgray; vector-effect: non-scaling-stroke; stroke-width: 1px;" id="e14_shape"/><path d="M4.335625171661377,44.191070556640625V42.69107437133789A2,2,0,0,0,2.3356270790100098,40.69106674194336H-1.6643710136413574A2,2,0,0,0,-3.6643736362457275,42.69107437133789V45.691070556640625A2,2,0,0,0,-1.6643710136413574,47.691070556640625H2.3356270790100098A2,2,0,0,0,4.335625171661377,45.691070556640625Z" transform="matrix(7.01398 0 0 1.97004 489.798 118.271)" style="fill:lightgray; vector-effect: non-scaling-stroke; stroke-width: 1px;" id="e4_shape"/><path d="M17.29973602294922,99.67393493652344V98.17393493652344A2,2,0,0,0,15.299735069274902,96.1739273071289H11.2997465133667A2,2,0,0,0,9.2997465133667,98.17393493652344V101.17393493652344A2,2,0,0,0,11.2997465133667,103.17394256591797H15.299735069274902A2,2,0,0,0,17.29973602294922,101.17393493652344Z" transform="matrix(-0.0105297 7.9788 -1.97004 -0.00259989 666.365 73.7719)" style="fill:lightgray; vector-effect: non-scaling-stroke; stroke-width: 1px;" id="e5_shape"/><path d="M15.524662971496582,2.1733944416046143V0.6733890175819397A2,2,0,0,0,13.524662971496582,-1.3266197443008423H9.524678230285645A2,2,0,0,0,7.524669170379639,0.6733890175819397V3.6733927726745605A2,2,0,0,0,9.524678230285645,5.673399448394775H13.524662971496582A2,2,0,0,0,15.524662971496582,3.6733927726745605Z" transform="matrix(4.34692 -6.69072 1.652 1.07329 506.177 255.404)" style="fill:lightgray; vector-effect: non-scaling-stroke; stroke-width: 1px;" id="e6_shape"/><path d="M14.368755340576172,43.683433532714844V42.183433532714844A2,2,0,0,0,12.368755340576172,40.183433532714844H8.368755340576172A2,2,0,0,0,6.368755340576172,42.183433532714844V45.183433532714844A2,2,0,0,0,8.368755340576172,47.183433532714844H12.368755340576172A2,2,0,0,0,14.368755340576172,45.183433532714844Z" transform="matrix(7.97881 0 0 1.97004 492.922 118.271)" style="fill:lightgray; vector-effect: non-scaling-stroke; stroke-width: 1px;" id="e7_shape"/><path d="M23.298118591308594,72.97210693359375V71.47210693359375A2,2,0,0,0,21.29812240600586,69.47211456298828H17.29812240600586A2,2,0,0,0,15.29812240600586,71.47210693359375V74.47211456298828A2,2,0,0,0,17.29812240600586,76.47209167480469H21.29812240600586A2,2,0,0,0,23.298118591308594,74.47211456298828Z" transform="matrix(4.40249 6.44752 -1.59195 1.08701 621.315 -23.2548)" style="fill:lightgray; vector-effect: non-scaling-stroke; stroke-width: 1px;" id="e8_shape"/><path d="M17.367591857910156,14.80511474609375V13.30511474609375A2,2,0,0,0,15.367576599121094,11.305100440979004H11.367599487304688A2,2,0,0,0,9.367599487304688,13.30511474609375V16.305116653442383A2,2,0,0,0,11.367599487304688,18.305124282836914H15.367576599121094A2,2,0,0,0,17.367591857910156,16.305116653442383Z" transform="matrix(-0.0105297 7.9788 -1.97004 -0.00259989 666.365 73.7719)" style="fill:lightgray; vector-effect: non-scaling-stroke; stroke-width: 1px;" id="e10_shape"/><path d="M26.644886016845703,51.10873031616211V49.60872268676758A2,2,0,0,0,24.6449031829834,47.60872268676758H20.644908905029297A2,2,0,0,0,18.644908905029297,49.60872268676758V52.608741760253906A2,2,0,0,0,20.644908905029297,54.60873794555664H24.6449031829834A2,2,0,0,0,26.644886016845703,52.608741760253906Z" transform="matrix(3.54008 5.22623 -1.2801 0.881109 634.972 6.95715)" style="fill:lightgray; vector-effect: non-scaling-stroke; stroke-width: 1px;" id="e11_shape"/><path d="M24.8381404876709,41.33040237426758V39.83040237426758A2,2,0,0,0,22.838138580322266,37.83040237426758H18.838138580322266A2,2,0,0,0,16.838138580322266,39.83040237426758V42.830406188964844A2,2,0,0,0,18.838138580322266,44.830413818359375H22.838138580322266A2,2,0,0,0,24.8381404876709,42.830406188964844Z" transform="matrix(3.49509 -5.38088 1.32827 0.863173 547.624 245.906)" style="fill:lightgray; vector-effect: non-scaling-stroke; stroke-width: 1px;" id="e12_shape"/><path d="M17.579936981201172,-11.182446479797363V-12.682451248168945A2,2,0,0,0,15.579936027526855,-14.682453155517578H11.579940795898438A2,2,0,0,0,9.579973220825195,-12.682451248168945V-9.68244457244873A2,2,0,0,0,11.579940795898438,-7.682450771331787H15.579936027526855A2,2,0,0,0,17.579936981201172,-9.68244457244873Z" transform="matrix(-0.0105297 7.9788 -1.97004 -0.00259989 666.365 73.7719)" style="fill:lightgray; vector-effect: non-scaling-stroke; stroke-width: 1px;" id="e13_shape"/><path d="M208,280C208,280,208,280,208,280" style="fill:none;stroke:black;stroke-width:1px;" id="e4_arc3" /><path d="M363.45989990234375,431.529541015625C274.7547607421875,513.1409301757812,207.13282775878906,292.96746826171875,163.0693817138672,376.4088439941406C271.2331848144531,499.4962158203125,330.2231140136719,518.3204956054688,390.42462158203125,463.0760498046875C454.32275390625,402.99981689453125,433.395263671875,348.7652282714844,315.20477294921875,229.9800567626953C235.74644470214844,268.1091613769531,445.56201171875,352.7073059082031,363.45989990234375,431.529541015625Z" style="fill:url(#lrgd2-e1); stroke-width: 1px;" id="e17_area3" transform="matrix(0.729847 0.683611 -0.683611 0.729847 340.031 -144.777)"/><path d="M 1.11139 -2.30529 L 8.04424 0.445828 A 1.01953 1.01953 0 0 0 9.64076 -0.214447 L 1.11139 -3.58917 A 2 2 0 0 0 -1.38861 -3.58917 L -9.84869 -0.268057 A 2.96624 2.96624 0 0 0 -5.89585 1.25 L -1.45792 -0.589727 V 6.94405 A 1 1 0 0 0 1.11139 6.94405 Z" transform="matrix(14.4294 0 0 18.9529 573.412 311.515)" style="fill:url(#lrgd2-e1); vector-effect: non-scaling-stroke; stroke-width: 1px;" id="e19_shape"/><path d="M20.7468204498291,106.47409057617188V104.97411346435547A2,2,0,0,0,18.746822357177734,102.97415161132812H14.746817588806152A2,2,0,0,0,12.74681568145752,104.97411346435547V107.97406005859375A2,2,0,0,0,14.746817588806152,109.97406005859375H18.746822357177734A2,2,0,0,0,20.7468204498291,107.97406005859375Z" transform="matrix(11.6086 0 0 1.97004 444.534 118.271)" style="fill:lightsalmon; vector-effect: non-scaling-stroke; stroke-width: 1px;" id="e2_shape"/></svg>