<svg xmlns="http://www.w3.org/2000/svg" xmlns:xlink="http://www.w3.org/1999/xlink" width="850px" height="550px" viewBox="0 0 850 550" preserveAspectRatio="xMidYMid meet" ><rect id="svgEditorBackground" x="0" y="0" width="850" height="550" style="fill:none; stroke: none;"/><defs id="svgEditorDefs"><polygon id="svgEditorShapeDefs" style="fill:khaki;stroke:black;vector-effect:non-scaling-stroke;stroke-width:1px;"/><path id="svgEditorClosePathDefs" style="stroke:black;stroke-width:1px;fill:khaki;"/><linearGradient gradientUnits="objectBoundingBox" id="lrgd2-e1-50-reflect" spreadMethod="reflect" x1="0%" x2="50%" y1="0%" y2="0%" gradientTransform=""><stop offset="0%" stop-color="lightblue"/><stop offset="100%" stop-color="#ef5b2b"/></linearGradient><linearGradient gradientUnits="objectBoundingBox" id="lrgd2-e1" spreadMethod="pad" x1="0%" x2="100%" y1="0%" y2="0%" gradientTransform="rotate(0)"><stop offset="0%" stop-color="mistyrose"/><stop offset="1" stop-color="#ef5b2b" style="stop-opacity: 1;"/></linearGradient><linearGradient gradientUnits="objectBoundingBox" id="lgrd2-black-white" spreadMethod="pad" x1="0%" x2="100%" y1="0%" y2="100%"><stop offset="0%" stop-color="#969696"/><stop offset="100%" stop-color="#E6E6E6"/></linearGradient><pattern height="10" id="hatch-black-45" patternTransform="rotate(45) scale(0.4)" patternUnits="userSpaceOnUse" viewBox="0 0 10 10" width="10" x="0" y="0"><line style="stroke:black;stroke-width:1px;" x1="0" x2="10" y1="5" y2="5"/></pattern><pattern height="16" id="dot-p" patternContentUnits="userSpaceOnUse" patternUnits="userSpaceOnUse" preserveAspectRatio="xMinYMin meet" viewBox="0 0 16 16" width="16" x="0" y="0" patternTransform=""><rect height="16" style="fill:#DFDBE5;stroke:none;" width="16" x="0" y="0"/><path d="M0 0h16v2h-6v6h6v8H8v-6H2v6H0V0zm4 4h2v2H4V4zm8 8h2v2h-2v-2zm-8 0h2v2H4v-2zm8-8h2v2h-2V4z" fill-rule="evenodd" style="fill:#9C92AC;fill-opacity:0.4;"/></pattern></defs><path d="M 4.08361 0 V -1.5 A 2 2 0 0 0 2.08361 -3.5 H -1.91639 A 2 2 0 0 0 -3.91639 -1.5 V 1.5 A 2 2 0 0 0 -1.91639 3.5 H 2.08361 A 2 2 0 0 0 4.08361 1.5 Z" transform="matrix(23.9204 0 0 7.3574 306.213 186.851)" style="vector-effect: non-scaling-stroke; stroke-width: 1px;fill:lightgray;" id="e3_shape"/><path d="M 6.31982 15.8225 V 14.3225 A 2 2 0 0 0 4.31982 12.3225 H 0.319818 A 2 2 0 0 0 -1.68018 14.3225 V 17.3225 A 2 2 0 0 0 0.319818 19.3225 H 4.31982 A 2 2 0 0 0 6.31982 17.3225 Z" transform="matrix(-0.00762258 23.7219 -7.78909 -0.000943714 431.837 249.828)" style="vector-effect: non-scaling-stroke; stroke-width: 1px;fill:lightgray;" id="e9_shape"/><path d="M208,280C208,280,208,280,208,280" style="fill:none;stroke:black;stroke-width:1px;" id="e4_arc3"/><path d="M -1.76378 -6.17531 L 5.16908 -3.42419 A 1.01953 1.01953 0 0 0 6.76559 -4.08447 L -1.76378 -7.45919 A 2 2 0 0 0 -4.26378 -7.45919 L -12.7239 -4.13808 A 2.96624 2.96624 0 0 0 -8.77102 -2.62002 L -4.33308 -4.45975 V 3.07403 A 1 1 0 0 0 -1.76378 3.07403 Z" transform="matrix(12.3216 0 0 20.8324 522.62 316.689)" style="fill:url(#lrgd2-e1); vector-effect: non-scaling-stroke; stroke-width: 1px;" id="e19_shape"/><path d="M13.353532791137695,65.86572265625V64.3657455444336A2,2,0,0,0,11.353536605834961,62.36579895019531H7.353544235229492A2,2,0,0,0,5.353549480438232,64.3657455444336V67.36569213867188A2,2,0,0,0,7.353544235229492,69.36569213867188H11.353536605834961A2,2,0,0,0,13.353532791137695,67.36569213867188Z" transform="matrix(9.94044 0 0 1.97004 446.962 118.271)" style="fill:lightsalmon; vector-effect: non-scaling-stroke; stroke-width: 1px;" id="e2_shape"/></svg>